<svg width="447" height="259" viewBox="0 0 447 259" fill="none" xmlns="http://www.w3.org/2000/svg">
<g clip-path="url(#clip0_89_709)">
<g opacity="0.95">
<path d="M83.1639 0.00012207H32.9905C30.713 0.00012207 28.8667 1.84643 28.8667 4.12396V54.2973C28.8667 56.5748 30.713 58.4211 32.9905 58.4211H83.1639C85.4414 58.4211 87.2877 56.5748 87.2877 54.2973V4.12396C87.2877 1.84643 85.4414 0.00012207 83.1639 0.00012207Z" fill="url(#paint0_linear_89_709)"/>
<path d="M149.833 0.00012207H99.6592C97.3817 0.00012207 95.5354 1.84643 95.5354 4.12396V54.2973C95.5354 56.5748 97.3817 58.4211 99.6592 58.4211H149.833C152.11 58.4211 153.956 56.5748 153.956 54.2973V4.12396C153.956 1.84643 152.11 0.00012207 149.833 0.00012207Z" fill="url(#paint1_linear_89_709)"/>
<path d="M216.502 0.00012207H166.328C164.051 0.00012207 162.204 1.84643 162.204 4.12396V54.2973C162.204 56.5748 164.051 58.4211 166.328 58.4211H216.502C218.779 58.4211 220.625 56.5748 220.625 54.2973V4.12396C220.625 1.84643 218.779 0.00012207 216.502 0.00012207Z" fill="url(#paint2_linear_89_709)"/>
<path d="M283.17 0.00012207H232.997C230.719 0.00012207 228.873 1.84643 228.873 4.12396V54.2973C228.873 56.5748 230.719 58.4211 232.997 58.4211H283.17C285.448 58.4211 287.294 56.5748 287.294 54.2973V4.12396C287.294 1.84643 285.448 0.00012207 283.17 0.00012207Z" fill="url(#paint3_linear_89_709)"/>
<path d="M349.839 0.00012207H299.665C297.388 0.00012207 295.542 1.84643 295.542 4.12396V54.2973C295.542 56.5748 297.388 58.4211 299.665 58.4211H349.839C352.116 58.4211 353.963 56.5748 353.963 54.2973V4.12396C353.963 1.84643 352.116 0.00012207 349.839 0.00012207Z" fill="url(#paint4_linear_89_709)"/>
<path d="M416.507 0.00012207H366.334C364.057 0.00012207 362.21 1.84643 362.21 4.12396V54.2973C362.21 56.5748 364.057 58.4211 366.334 58.4211H416.507C418.785 58.4211 420.631 56.5748 420.631 54.2973V4.12396C420.631 1.84643 418.785 0.00012207 416.507 0.00012207Z" fill="url(#paint5_linear_89_709)"/>
<path d="M83.1639 66.6688H32.9905C30.713 66.6688 28.8667 68.5151 28.8667 70.7927V120.966C28.8667 123.244 30.713 125.09 32.9905 125.09H83.1639C85.4414 125.09 87.2877 123.244 87.2877 120.966V70.7927C87.2877 68.5151 85.4414 66.6688 83.1639 66.6688Z" fill="url(#paint6_linear_89_709)"/>
<path d="M149.833 66.6688H99.6592C97.3817 66.6688 95.5354 68.5151 95.5354 70.7927V120.966C95.5354 123.244 97.3817 125.09 99.6592 125.09H149.833C152.11 125.09 153.956 123.244 153.956 120.966V70.7927C153.956 68.5151 152.11 66.6688 149.833 66.6688Z" fill="url(#paint7_linear_89_709)"/>
<path d="M216.502 66.6688H166.328C164.051 66.6688 162.204 68.5151 162.204 70.7927V120.966C162.204 123.244 164.051 125.09 166.328 125.09H216.502C218.779 125.09 220.625 123.244 220.625 120.966V70.7927C220.625 68.5151 218.779 66.6688 216.502 66.6688Z" fill="url(#paint8_linear_89_709)"/>
<path d="M283.17 66.6688H232.997C230.719 66.6688 228.873 68.5151 228.873 70.7927V120.966C228.873 123.244 230.719 125.09 232.997 125.09H283.17C285.448 125.09 287.294 123.244 287.294 120.966V70.7927C287.294 68.5151 285.448 66.6688 283.17 66.6688Z" fill="url(#paint9_linear_89_709)"/>
<path d="M349.839 66.6688H299.665C297.388 66.6688 295.542 68.5151 295.542 70.7927V120.966C295.542 123.244 297.388 125.09 299.665 125.09H349.839C352.116 125.09 353.963 123.244 353.963 120.966V70.7927C353.963 68.5151 352.116 66.6688 349.839 66.6688Z" fill="url(#paint10_linear_89_709)"/>
<path d="M416.507 66.6688H366.334C364.057 66.6688 362.21 68.5151 362.21 70.7927V120.966C362.21 123.244 364.057 125.09 366.334 125.09H416.507C418.785 125.09 420.631 123.244 420.631 120.966V70.7927C420.631 68.5151 418.785 66.6688 416.507 66.6688Z" fill="url(#paint11_linear_89_709)"/>
<path d="M83.1639 133.338H32.9905C30.713 133.338 28.8667 135.184 28.8667 137.461V187.635C28.8667 189.912 30.713 191.759 32.9905 191.759H83.1639C85.4414 191.759 87.2877 189.912 87.2877 187.635V137.461C87.2877 135.184 85.4414 133.338 83.1639 133.338Z" fill="url(#paint12_linear_89_709)"/>
<path d="M149.833 133.338H99.6592C97.3817 133.338 95.5354 135.184 95.5354 137.461V187.635C95.5354 189.912 97.3817 191.759 99.6592 191.759H149.833C152.11 191.759 153.956 189.912 153.956 187.635V137.461C153.956 135.184 152.11 133.338 149.833 133.338Z" fill="url(#paint13_linear_89_709)"/>
<path d="M216.502 133.338H166.328C164.051 133.338 162.204 135.184 162.204 137.461V187.635C162.204 189.912 164.051 191.759 166.328 191.759H216.502C218.779 191.759 220.625 189.912 220.625 187.635V137.461C220.625 135.184 218.779 133.338 216.502 133.338Z" fill="url(#paint14_linear_89_709)"/>
<path d="M283.17 133.338H232.997C230.719 133.338 228.873 135.184 228.873 137.461V187.635C228.873 189.912 230.719 191.759 232.997 191.759H283.17C285.448 191.759 287.294 189.912 287.294 187.635V137.461C287.294 135.184 285.448 133.338 283.17 133.338Z" fill="url(#paint15_linear_89_709)"/>
<path d="M349.839 133.338H299.665C297.388 133.338 295.542 135.184 295.542 137.461V187.635C295.542 189.912 297.388 191.759 299.665 191.759H349.839C352.116 191.759 353.963 189.912 353.963 187.635V137.461C353.963 135.184 352.116 133.338 349.839 133.338Z" fill="url(#paint16_linear_89_709)"/>
<path d="M416.507 133.338H366.334C364.057 133.338 362.21 135.184 362.21 137.461V187.635C362.21 189.912 364.057 191.759 366.334 191.759H416.507C418.785 191.759 420.631 189.912 420.631 187.635V137.461C420.631 135.184 418.785 133.338 416.507 133.338Z" fill="url(#paint17_linear_89_709)"/>
<path d="M83.1639 200.006H32.9905C30.713 200.006 28.8667 201.853 28.8667 204.13V254.304C28.8667 256.581 30.713 258.427 32.9905 258.427H83.1639C85.4414 258.427 87.2877 256.581 87.2877 254.304V204.13C87.2877 201.853 85.4414 200.006 83.1639 200.006Z" fill="url(#paint18_linear_89_709)"/>
<path d="M149.833 200.006H99.6592C97.3817 200.006 95.5354 201.853 95.5354 204.13V254.304C95.5354 256.581 97.3817 258.427 99.6592 258.427H149.833C152.11 258.427 153.956 256.581 153.956 254.304V204.13C153.956 201.853 152.11 200.006 149.833 200.006Z" fill="url(#paint19_linear_89_709)"/>
<path d="M216.502 200.006H166.328C164.051 200.006 162.204 201.853 162.204 204.13V254.304C162.204 256.581 164.051 258.427 166.328 258.427H216.502C218.779 258.427 220.625 256.581 220.625 254.304V204.13C220.625 201.853 218.779 200.006 216.502 200.006Z" fill="url(#paint20_linear_89_709)"/>
<path d="M283.17 200.006H232.997C230.719 200.006 228.873 201.853 228.873 204.13V254.304C228.873 256.581 230.719 258.427 232.997 258.427H283.17C285.448 258.427 287.294 256.581 287.294 254.304V204.13C287.294 201.853 285.448 200.006 283.17 200.006Z" fill="url(#paint21_linear_89_709)"/>
<path d="M349.839 200.006H299.665C297.388 200.006 295.542 201.853 295.542 204.13V254.304C295.542 256.581 297.388 258.427 299.665 258.427H349.839C352.116 258.427 353.963 256.581 353.963 254.304V204.13C353.963 201.853 352.116 200.006 349.839 200.006Z" fill="url(#paint22_linear_89_709)"/>
<path d="M416.507 200.006H366.334C364.057 200.006 362.21 201.853 362.21 204.13V254.304C362.21 256.581 364.057 258.427 366.334 258.427H416.507C418.785 258.427 420.631 256.581 420.631 254.304V204.13C420.631 201.853 418.785 200.006 416.507 200.006Z" fill="url(#paint23_linear_89_709)"/>
</g>
<path d="M223.374 209.628C268.925 209.628 305.851 172.702 305.851 127.152C305.851 81.601 268.925 44.6749 223.374 44.6749C177.824 44.6749 140.898 81.601 140.898 127.152C140.898 172.702 177.824 209.628 223.374 209.628Z" stroke="#FEB413" stroke-opacity="0.4" stroke-width="1.10145" stroke-dasharray="3.08 2.64"/>
<path d="M197.944 53.2664C200.791 53.2664 203.099 50.9585 203.099 48.1116C203.099 45.2647 200.791 42.9568 197.944 42.9568C195.097 42.9568 192.789 45.2647 192.789 48.1116C192.789 50.9585 195.097 53.2664 197.944 53.2664Z" fill="#FEB413"/>
<path d="M302.415 154.988C305.261 154.988 307.569 152.68 307.569 149.833C307.569 146.986 305.261 144.678 302.415 144.678C299.568 144.678 297.26 146.986 297.26 149.833C297.26 152.68 299.568 154.988 302.415 154.988Z" fill="#FEB413"/>
<path d="M156.706 180.647C159.552 180.647 161.86 178.339 161.86 175.492C161.86 172.645 159.552 170.338 156.706 170.338C153.859 170.338 151.551 172.645 151.551 175.492C151.551 178.339 153.859 180.647 156.706 180.647Z" fill="#FEB413"/>
<path d="M208.941 109.282V143.647L223.375 129.901L237.808 143.647V109.282L223.375 123.028L208.941 109.282Z" stroke="#FEB413" stroke-width="3.08407" stroke-linecap="round" stroke-linejoin="round"/>
</g>
<defs>
<linearGradient id="paint0_linear_89_709" x1="28.8667" y1="0.00012207" x2="87.2877" y2="58.4211" gradientUnits="userSpaceOnUse">
<stop stop-color="#FEB413" stop-opacity="0.12"/>
<stop offset="1" stop-color="#FEB413" stop-opacity="0.06"/>
</linearGradient>
<linearGradient id="paint1_linear_89_709" x1="95.5354" y1="0.00012207" x2="153.956" y2="58.4211" gradientUnits="userSpaceOnUse">
<stop stop-color="#FEB413" stop-opacity="0.12"/>
<stop offset="1" stop-color="#FEB413" stop-opacity="0.06"/>
</linearGradient>
<linearGradient id="paint2_linear_89_709" x1="162.204" y1="0.00012207" x2="220.625" y2="58.4211" gradientUnits="userSpaceOnUse">
<stop stop-color="#FEB413" stop-opacity="0.12"/>
<stop offset="1" stop-color="#FEB413" stop-opacity="0.06"/>
</linearGradient>
<linearGradient id="paint3_linear_89_709" x1="228.873" y1="0.00012207" x2="287.294" y2="58.4211" gradientUnits="userSpaceOnUse">
<stop stop-color="#FEB413" stop-opacity="0.12"/>
<stop offset="1" stop-color="#FEB413" stop-opacity="0.06"/>
</linearGradient>
<linearGradient id="paint4_linear_89_709" x1="295.542" y1="0.00012207" x2="353.963" y2="58.4211" gradientUnits="userSpaceOnUse">
<stop stop-color="#FEB413" stop-opacity="0.12"/>
<stop offset="1" stop-color="#FEB413" stop-opacity="0.06"/>
</linearGradient>
<linearGradient id="paint5_linear_89_709" x1="362.21" y1="0.00012207" x2="420.631" y2="58.4211" gradientUnits="userSpaceOnUse">
<stop stop-color="#FEB413" stop-opacity="0.12"/>
<stop offset="1" stop-color="#FEB413" stop-opacity="0.06"/>
</linearGradient>
<linearGradient id="paint6_linear_89_709" x1="28.8667" y1="66.6688" x2="87.2877" y2="125.09" gradientUnits="userSpaceOnUse">
<stop stop-color="#FEB413" stop-opacity="0.12"/>
<stop offset="1" stop-color="#FEB413" stop-opacity="0.06"/>
</linearGradient>
<linearGradient id="paint7_linear_89_709" x1="95.5354" y1="66.6688" x2="153.956" y2="125.09" gradientUnits="userSpaceOnUse">
<stop stop-color="#FEB413" stop-opacity="0.12"/>
<stop offset="1" stop-color="#FEB413" stop-opacity="0.06"/>
</linearGradient>
<linearGradient id="paint8_linear_89_709" x1="162.204" y1="66.6688" x2="220.625" y2="125.09" gradientUnits="userSpaceOnUse">
<stop stop-color="#FEB413" stop-opacity="0.12"/>
<stop offset="1" stop-color="#FEB413" stop-opacity="0.06"/>
</linearGradient>
<linearGradient id="paint9_linear_89_709" x1="228.873" y1="66.6688" x2="287.294" y2="125.09" gradientUnits="userSpaceOnUse">
<stop stop-color="#FEB413" stop-opacity="0.12"/>
<stop offset="1" stop-color="#FEB413" stop-opacity="0.06"/>
</linearGradient>
<linearGradient id="paint10_linear_89_709" x1="295.542" y1="66.6688" x2="353.963" y2="125.09" gradientUnits="userSpaceOnUse">
<stop stop-color="#FEB413" stop-opacity="0.12"/>
<stop offset="1" stop-color="#FEB413" stop-opacity="0.06"/>
</linearGradient>
<linearGradient id="paint11_linear_89_709" x1="362.21" y1="66.6688" x2="420.631" y2="125.09" gradientUnits="userSpaceOnUse">
<stop stop-color="#FEB413" stop-opacity="0.12"/>
<stop offset="1" stop-color="#FEB413" stop-opacity="0.06"/>
</linearGradient>
<linearGradient id="paint12_linear_89_709" x1="28.8667" y1="133.338" x2="87.2877" y2="191.759" gradientUnits="userSpaceOnUse">
<stop stop-color="#FEB413" stop-opacity="0.12"/>
<stop offset="1" stop-color="#FEB413" stop-opacity="0.06"/>
</linearGradient>
<linearGradient id="paint13_linear_89_709" x1="95.5354" y1="133.338" x2="153.956" y2="191.759" gradientUnits="userSpaceOnUse">
<stop stop-color="#FEB413" stop-opacity="0.12"/>
<stop offset="1" stop-color="#FEB413" stop-opacity="0.06"/>
</linearGradient>
<linearGradient id="paint14_linear_89_709" x1="162.204" y1="133.338" x2="220.625" y2="191.759" gradientUnits="userSpaceOnUse">
<stop stop-color="#FEB413" stop-opacity="0.12"/>
<stop offset="1" stop-color="#FEB413" stop-opacity="0.06"/>
</linearGradient>
<linearGradient id="paint15_linear_89_709" x1="228.873" y1="133.338" x2="287.294" y2="191.759" gradientUnits="userSpaceOnUse">
<stop stop-color="#FEB413" stop-opacity="0.12"/>
<stop offset="1" stop-color="#FEB413" stop-opacity="0.06"/>
</linearGradient>
<linearGradient id="paint16_linear_89_709" x1="295.542" y1="133.338" x2="353.963" y2="191.759" gradientUnits="userSpaceOnUse">
<stop stop-color="#FEB413" stop-opacity="0.12"/>
<stop offset="1" stop-color="#FEB413" stop-opacity="0.06"/>
</linearGradient>
<linearGradient id="paint17_linear_89_709" x1="362.21" y1="133.338" x2="420.631" y2="191.759" gradientUnits="userSpaceOnUse">
<stop stop-color="#FEB413" stop-opacity="0.12"/>
<stop offset="1" stop-color="#FEB413" stop-opacity="0.06"/>
</linearGradient>
<linearGradient id="paint18_linear_89_709" x1="28.8667" y1="200.006" x2="87.2877" y2="258.427" gradientUnits="userSpaceOnUse">
<stop stop-color="#FEB413" stop-opacity="0.12"/>
<stop offset="1" stop-color="#FEB413" stop-opacity="0.06"/>
</linearGradient>
<linearGradient id="paint19_linear_89_709" x1="95.5354" y1="200.006" x2="153.956" y2="258.427" gradientUnits="userSpaceOnUse">
<stop stop-color="#FEB413" stop-opacity="0.12"/>
<stop offset="1" stop-color="#FEB413" stop-opacity="0.06"/>
</linearGradient>
<linearGradient id="paint20_linear_89_709" x1="162.204" y1="200.006" x2="220.625" y2="258.427" gradientUnits="userSpaceOnUse">
<stop stop-color="#FEB413" stop-opacity="0.12"/>
<stop offset="1" stop-color="#FEB413" stop-opacity="0.06"/>
</linearGradient>
<linearGradient id="paint21_linear_89_709" x1="228.873" y1="200.006" x2="287.294" y2="258.427" gradientUnits="userSpaceOnUse">
<stop stop-color="#FEB413" stop-opacity="0.12"/>
<stop offset="1" stop-color="#FEB413" stop-opacity="0.06"/>
</linearGradient>
<linearGradient id="paint22_linear_89_709" x1="295.542" y1="200.006" x2="353.963" y2="258.427" gradientUnits="userSpaceOnUse">
<stop stop-color="#FEB413" stop-opacity="0.12"/>
<stop offset="1" stop-color="#FEB413" stop-opacity="0.06"/>
</linearGradient>
<linearGradient id="paint23_linear_89_709" x1="362.21" y1="200.006" x2="420.631" y2="258.427" gradientUnits="userSpaceOnUse">
<stop stop-color="#FEB413" stop-opacity="0.12"/>
<stop offset="1" stop-color="#FEB413" stop-opacity="0.06"/>
</linearGradient>
<clipPath id="clip0_89_709">
<rect width="446.749" height="258.885" fill="white"/>
</clipPath>
</defs>
</svg>
