<svg width="14" height="14" viewBox="0 0 14 14" fill="none" xmlns="http://www.w3.org/2000/svg">
<path d="M11.4086 2.33333L11.9322 2.90251C12.1661 3.1568 12.283 3.28394 12.2419 3.39197C12.2007 3.5 12.0353 3.5 11.7045 3.5C10.9641 3.5 10.0783 3.38038 9.39817 3.77609C8.97765 4.02075 8.68484 4.44801 8.18952 5.25M1.75 10.5H2.67214C3.79676 10.5 4.35907 10.5 4.83361 10.2239C5.25413 9.97925 5.54694 9.55199 6.04226 8.75" stroke="#E9E9E9" stroke-width="0.8" stroke-linecap="round" stroke-linejoin="round"/>
<path d="M11.4086 11.6667L11.9322 11.0975C12.1661 10.8432 12.283 10.7161 12.2419 10.608C12.2007 10.5 12.0353 10.5 11.7045 10.5C10.9641 10.5 10.0783 10.6196 9.39817 10.2239C8.92362 9.94782 8.61171 9.43919 7.98788 8.42194L6.2439 5.57807C5.62007 4.56081 5.30816 4.05219 4.83361 3.77609C4.35907 3.5 3.79676 3.5 2.67214 3.5H1.75" stroke="#E9E9E9" stroke-width="0.8" stroke-linecap="round" stroke-linejoin="round"/>
</svg>
