<svg width="14" height="14" viewBox="0 0 14 14" fill="none" xmlns="http://www.w3.org/2000/svg">
<path d="M6.99901 1.16666C5.33681 1.16666 4.25905 2.3444 2.98442 2.77368C2.46615 2.94823 2.20701 3.03551 2.10214 3.15854C1.99726 3.28156 1.96656 3.46134 1.90514 3.8209C1.2479 7.66849 2.68444 11.2256 6.11043 12.6102C6.47853 12.7589 6.66258 12.8333 7.00082 12.8333C7.33906 12.8333 7.5231 12.7589 7.89118 12.6102C11.3169 11.2256 12.7521 7.66847 12.0947 3.8209C12.0332 3.46128 12.0025 3.28147 11.8976 3.15844C11.7927 3.03541 11.5336 2.94818 11.0154 2.77373C9.74025 2.34449 8.66126 1.16666 6.99901 1.16666Z" stroke="#E9E9E9" stroke-width="0.8" stroke-linecap="round" stroke-linejoin="round"/>
<path d="M11.3662 3.1995C11.5224 3.04329 11.5224 2.79002 11.3662 2.63381C11.21 2.4776 10.9567 2.4776 10.8005 2.63381L11.0833 2.91666L11.3662 3.1995ZM3.21716 10.2171C3.06095 10.3734 3.06095 10.6266 3.21716 10.7828C3.37337 10.939 3.62663 10.939 3.78284 10.7828L3.5 10.5L3.21716 10.2171ZM11.0833 2.91666L10.8005 2.63381L3.21716 10.2171L3.5 10.5L3.78284 10.7828L11.3662 3.1995L11.0833 2.91666Z" fill="#E9E9E9"/>
</svg>
