<svg width="15" height="18" viewBox="0 0 15 18" fill="none" xmlns="http://www.w3.org/2000/svg">
<path d="M14.9579 16.1394C14.9579 16.9178 14.9579 17.307 14.6971 17.4998C14.4364 17.6928 14.0525 17.5877 13.2847 17.3774L0.947434 13.9982C0.484866 13.8715 0.253582 13.8082 0.119833 13.6359C-0.013916 13.4638 -0.013916 13.2292 -0.013916 12.7604V4.84105C-0.013916 4.37212 -0.013916 4.13765 0.119833 3.96543C0.253582 3.79319 0.484865 3.72985 0.947433 3.60315L13.2847 0.224003C14.0525 0.0137226 14.4364 -0.0914177 14.6971 0.101512C14.9579 0.294442 14.9579 0.683596 14.9579 1.4619V16.1394ZM3.06295 12.8965L13.2783 15.6948V10.0985L3.06295 12.8965ZM1.66553 11.5983L11.8788 8.80069L1.66553 6.00305V11.5983ZM3.06284 4.70488L13.2783 7.50294V1.90661L3.06284 4.70488Z" fill="#DEE3E7"/>
</svg>
