<svg width="24" height="18" viewBox="0 0 24 18" fill="none" xmlns="http://www.w3.org/2000/svg">
<path d="M20.524 14.75C21.2733 14.75 21.8693 14.2785 22.4045 13.6191C23.4999 12.2694 21.7013 11.1908 21.0154 10.6626C20.318 10.1256 19.5394 9.82142 18.75 9.75M17.75 7.75C19.1307 7.75 20.25 6.63071 20.25 5.25C20.25 3.86929 19.1307 2.75 17.75 2.75" stroke="#E9E9E9" stroke-width="1.5" stroke-linecap="round"/>
<path d="M2.97596 14.75C2.22666 14.75 1.63067 14.2785 1.09555 13.6191C8.85427e-05 12.2694 1.79867 11.1908 2.48465 10.6626C3.18197 10.1256 3.96058 9.82142 4.75 9.75M5.25 7.75C3.86929 7.75 2.75 6.63071 2.75 5.25C2.75 3.86929 3.86929 2.75 5.25 2.75" stroke="#E9E9E9" stroke-width="1.5" stroke-linecap="round"/>
<path d="M7.8338 11.8612C6.81203 12.493 4.13299 13.7831 5.7647 15.3974C6.56178 16.186 7.44952 16.75 8.56563 16.75H14.9344C16.0505 16.75 16.9382 16.186 17.7353 15.3974C19.367 13.7831 16.688 12.493 15.6662 11.8612C13.2701 10.3796 10.2299 10.3796 7.8338 11.8612Z" stroke="#E9E9E9" stroke-width="1.5" stroke-linecap="round" stroke-linejoin="round"/>
<path d="M15.25 4.25C15.25 6.183 13.683 7.75 11.75 7.75C9.817 7.75 8.25 6.183 8.25 4.25C8.25 2.317 9.817 0.75 11.75 0.75C13.683 0.75 15.25 2.317 15.25 4.25Z" stroke="#E9E9E9" stroke-width="1.5"/>
</svg>
