<svg width="44" height="44" viewBox="0 0 44 44" fill="none" xmlns="http://www.w3.org/2000/svg">
<path d="M22 22V33" stroke="#FEB413" stroke-width="1.5" stroke-linecap="round"/>
<path d="M22.0001 33C18.9317 33 16.2612 34.8554 14.8825 37.5924C14.2239 38.8997 15.1689 40.3333 16.4245 40.3333H27.5757C28.8313 40.3333 29.7762 38.8997 29.1177 37.5924C27.739 34.8554 25.0684 33 22.0001 33Z" stroke="#FEB413" stroke-width="1.5" stroke-linecap="round"/>
<path d="M9.16675 9.16663H7.30538C5.49676 9.16663 4.59244 9.16663 4.03372 9.84593C3.475 10.5252 3.63885 11.2859 3.96654 12.8073C4.59247 15.7132 5.95013 18.2662 7.78973 20.1666" stroke="#FEB413" stroke-width="1.5" stroke-linecap="round"/>
<path d="M34.8333 9.16663H36.6946C38.5032 9.16663 39.4076 9.16663 39.9663 9.84593C40.525 10.5252 40.3612 11.2859 40.0335 12.8073C39.4075 15.7132 38.0499 18.2662 36.2103 20.1666" stroke="#FEB413" stroke-width="1.5" stroke-linecap="round"/>
<path d="M22.0001 22C29.0877 22 34.8334 16.2856 34.8334 9.23668C34.8334 9.05184 34.8295 8.86792 34.8216 8.68499C34.7433 6.85307 34.7041 5.93711 33.4626 4.80187C32.2211 3.66663 30.8454 3.66663 28.0942 3.66663H15.906C13.1547 3.66663 11.7791 3.66663 10.5376 4.80187C9.29602 5.93711 9.25686 6.85307 9.17852 8.68499C9.1707 8.86792 9.16675 9.05184 9.16675 9.23668C9.16675 16.2856 14.9124 22 22.0001 22Z" stroke="#FEB413" stroke-width="1.5" stroke-linecap="round"/>
</svg>
