<svg width="44" height="44" viewBox="0 0 44 44" fill="none" xmlns="http://www.w3.org/2000/svg">
<path d="M15.8182 23.2349H14.9768C12.2566 23.2349 10.8965 23.2349 10.3167 22.3381C9.737 21.4414 10.2894 20.192 11.3942 17.6932L14.7155 10.1809C15.72 7.909 16.2222 6.77303 17.1965 6.13652C18.1709 5.5 19.4075 5.5 21.8807 5.5H25.7113C28.7158 5.5 30.218 5.5 30.7846 6.48148C31.3512 7.46295 30.6059 8.77411 29.1152 11.3964L27.1501 14.8534C26.4091 16.1571 26.0386 16.8089 26.0437 17.3425C26.0505 18.0359 26.4192 18.6747 27.0148 19.0246C27.4731 19.2938 28.2199 19.2938 29.7135 19.2938C31.6017 19.2938 32.5458 19.2938 33.0375 19.6206C33.6763 20.0453 34.0106 20.805 33.8935 21.5658C33.8033 22.1514 33.1682 22.8537 31.8981 24.2581L21.7503 35.4793C19.7572 37.6832 18.7606 38.7852 18.0914 38.4365C17.4221 38.0878 17.7435 36.6339 18.3863 33.7263L19.6453 28.0309C20.1347 25.8169 20.3795 24.7099 19.7909 23.9724C19.2024 23.2349 18.0743 23.2349 15.8182 23.2349Z" stroke="#FEB413" stroke-width="1.5" stroke-linejoin="round"/>
</svg>
