<svg width="44" height="44" viewBox="0 0 44 44" fill="none" xmlns="http://www.w3.org/2000/svg">
<path d="M22 33V40.3333" stroke="#FEB413" stroke-width="1.5" stroke-linecap="round" stroke-linejoin="round"/>
<path d="M15.5833 40.3333L16.185 39.7315C17.2448 38.6716 17.7747 38.1416 18.4485 37.8625C19.1224 37.5833 19.8719 37.5833 21.3707 37.5833H22.6287C24.1274 37.5833 24.8768 37.5833 25.5506 37.8624C26.2245 38.1415 26.7543 38.6714 27.8141 39.7312L28.4162 40.3333" stroke="#FEB413" stroke-width="1.5" stroke-linecap="round" stroke-linejoin="round"/>
<path d="M4.58325 22C4.58325 27.1855 4.58325 29.7782 6.19416 31.3891C7.80508 33 10.3978 33 15.5833 33H28.4166C33.602 33 36.1948 33 37.8057 31.3891C39.4166 29.7782 39.4166 27.1855 39.4166 22V14.6667C39.4166 9.48124 39.4166 6.88851 37.8057 5.2776C36.1948 3.66669 33.602 3.66669 28.4166 3.66669H15.5833C10.3978 3.66669 7.80508 3.66669 6.19416 5.2776C4.58325 6.88851 4.58325 9.48124 4.58325 14.6667V22Z" stroke="#FEB413" stroke-width="1.5"/>
<path d="M14.6667 23.8333V18.3333M22.0001 23.8333V12.8333M29.3334 23.8333V20.1666" stroke="#FEB413" stroke-width="1.5" stroke-linecap="round"/>
</svg>
